<svg width="54" height="55" viewBox="0 0 54 55" fill="none" xmlns="http://www.w3.org/2000/svg">
<path d="M13.4492 30.0794V46.3217C13.4492 48.5998 15.2961 50.4467 17.5742 50.4467H34.0742C36.3523 50.4467 38.1992 48.5998 38.1992 46.3217V20.959L15.7353 20.959C14.2415 23.7516 13.4492 26.8825 13.4492 30.0794Z" fill="#FFF6DE"/>
<path fill-rule="evenodd" clip-rule="evenodd" d="M1.31061 10.6222C2.02293 9.45089 3.53318 9.08916 4.68386 9.81427L51.8538 39.5391C53.0045 40.2642 53.3599 41.8016 52.6475 42.9729C51.9352 44.1443 50.425 44.506 49.2743 43.7809L2.10431 14.0561C0.953638 13.3309 0.598284 11.7936 1.31061 10.6222Z" fill="#FF6633"/>
<path fill-rule="evenodd" clip-rule="evenodd" d="M14.1612 3.19765C14.1612 1.85232 15.2684 0.761719 16.6342 0.761719H35.3937C36.7595 0.761719 37.8667 1.85232 37.8667 3.19765C37.8667 4.46382 36.8859 5.50435 35.6319 5.62242L35.714 11.8504C35.714 12.5781 36.092 13.7259 36.8854 15.1707C37.6386 16.5421 38.6002 17.8897 39.3997 18.9399C39.475 19.0389 39.5426 19.1434 39.6019 19.2524C41.4347 22.6276 42.4068 26.4116 42.4068 30.2754V47.8599C42.4068 51.6716 39.2697 54.7617 35.4002 54.7617H16.6277C12.7582 54.7617 9.62109 51.6716 9.62109 47.8599V30.2754C9.62109 26.4116 10.5932 22.6276 12.426 19.2524C12.4853 19.1434 12.5529 19.0389 12.6282 18.9399C13.4277 17.8897 14.3893 16.5421 15.1425 15.1707C15.9359 13.7259 16.3142 12.5781 16.3142 11.8504V11.8188L16.396 5.62242C15.142 5.50435 14.1612 4.46382 14.1612 3.19765ZM21.3421 5.63357L21.26 11.8679C21.2548 13.8524 20.373 15.8857 19.4926 17.4888C18.611 19.094 17.5422 20.5969 16.7027 21.7077C15.3065 24.3394 14.567 27.2771 14.567 30.2754V47.8599C14.567 48.9809 15.4897 49.8899 16.6277 49.8899H35.4002C36.5382 49.8899 37.4609 48.9809 37.4609 47.8599V30.2754C37.4609 27.2771 36.7214 24.3394 35.3252 21.7077C34.4856 20.5969 33.4169 19.094 32.5353 17.4888C31.6549 15.8858 30.7731 13.8524 30.7679 11.868L30.6858 5.63357H21.3421Z" fill="#FF6633"/>
</svg>
