<svg width="55" height="37" viewBox="0 0 55 37" fill="none" xmlns="http://www.w3.org/2000/svg">
<path fill-rule="evenodd" clip-rule="evenodd" d="M6.93298 4.86412C5.73458 4.86412 4.92472 5.69246 4.92472 6.53655V29.9506C4.92472 30.7947 5.73458 31.623 6.93298 31.623H47.0983C48.2967 31.623 49.1065 30.7947 49.1065 29.9506V6.53655C49.1065 5.69246 48.2967 4.86412 47.0983 4.86412H6.93298ZM0.015625 6.53655C0.015625 3.07024 3.2019 0.404297 6.93298 0.404297H47.0983C50.8294 0.404297 54.0156 3.07024 54.0156 6.53655V29.9506C54.0156 33.4169 50.8294 36.0829 47.0983 36.0829H6.93298C3.2019 36.0829 0.015625 33.4169 0.015625 29.9506V6.53655Z" fill="#FF6633"/>
<path fill-rule="evenodd" clip-rule="evenodd" d="M0.015625 13.9042C0.015625 12.839 1.11456 11.9756 2.47017 11.9756H51.5611C52.9167 11.9756 54.0156 12.839 54.0156 13.9042C54.0156 14.9693 52.9167 15.8327 51.5611 15.8327H2.47017C1.11456 15.8327 0.015625 14.9693 0.015625 13.9042Z" fill="#FF6633"/>
</svg>
