<svg width="340" height="340" xmlns="http://www.w3.org/2000/svg"><g fill="none" fill-rule="evenodd"><ellipse fill="#EE6344" cx="164" cy="305" rx="82" ry="11"/><path d="M82.83 46.488c8.506 6.34 10.795 10.648 2.476 16.674-3.957 2.866-6.874 3.267-10.657 5.212-9.797 5.037-19.944 24.263-13.71 34.668 2.82.042 10.363-11.485 14.843-12.898 3.27-1.03 10.772-2.187 11.486 3.51.707 5.646-5.837 5.217-8.448 7.406-5.287 4.432-5.193 12.73-10.266 17.404-4.454 4.104-8.978 3.28-13.561-.78-5.065-4.484-2.64-5.518-2.537-11.168.053-2.93-.394-11.615-1.241-13.942-2.312-6.353-4.93-1.916-10.705-3.613-8.995-2.643-23.314-17.994-12.823-26.746 7.759-6.473 23.333 5.329 24.417-9.167.62-8.302-5.01-6.1-6.193-13.089-1.36-8.031 6.362-4.442 10.281-1.792 3.196 2.16 6.044 4.498 9 7.021 5.71 4.874 2.092 3.089 8.843 2.848.264-.01 9.002-1.82 8.796-1.548zm195.72 7.277c-15.849-7.102-38.161-1.584-52.818 7.035-.232-.62 7.985-11.255 8.32-11.048.595.37-2.295 3.642-2.395 3.778.982.077 9.106-4.445 10.378-4.99 6.576-2.819 13.176-5.479 20.209-6.986 6.399-1.372 13.831-2.396 20.14-.005 13.136 4.978 2.71 8.084-3.834 12.216zm-128.7 56.94c.843 1.408-2.713 9.138-2.765 9.115-.37-1.226 1.51-8.234 2.766-9.116zm-73.6 40.397c.441-1.457 3.397-4.417 4.829-4.896.457 1.406-4.04 4.635-4.83 4.896zm13.448-18.306c-1.144-.679 2.35-4.288 3.363-3.38-.888 1.733-2.387 2.07-3.363 3.38zM242.277 142c-.632 1.605-2.039 2.364-3.515 3.306.302-.997 2.117-2.711 3.516-3.306zm-53.628 18.356c-.817 1.872-3.632-.558-3.738-1.612 1.282.493 2.4 1.282 3.738 1.612zM64.342 148.104a11.741 11.741 0 0 1 3.202-3.02c-.07.7-2.683 3.548-3.202 3.02zm9.373-.16c.56.997.06 1.56-1.5 1.689l1.5-1.69zm73.63-26.189c-.428 1.297-.861 1.451-1.299.462.409-1.02.842-1.173 1.3-.462zm87.015-72.733c-.149-.954.055-1.215 1.062-1.36.199.789-.117 1.194-1.062 1.36zm5.728-3.195c.01-1.024.392-1.468 1.144-1.33.503.404-.72 1.635-1.144 1.33zm-96.372 79.154c.009-.693.3-1.137.876-1.33.589.603.297 1.046-.876 1.33zm104.229 12.454l-1.893 1.82c-.023-.347 1.37-2.372 1.893-1.82zM114.26 109.426l-1.364-1.734c.971.152 1.345.605 1.364 1.734zm1.759 11.762c.533.523 1.032.859.9 1.576-.822-.141-.94-.33-.9-1.576zm-58.858 36.78c.344.83-.087 1.381-1.292 1.655l1.292-1.655zm86.645-31.257c-.057.65-.334.96-.9 1.038-.086-.837-.005-.937.9-1.038zm-16.6-1.28c.257.523-.016.915-.241 1.395-.43-.902-.41-.998.241-1.395zm-76.386 41.15c.05-.567.235-.829.786-.82.003.51-.147.8-.786.82zm174.472-10.245l-.738.6c-.037-.81-.037-.81.738-.6zm-19.647 3.002c.305-.928.385-.962 1.388-.579l-1.388.58zm4.695-2.273c.585-.66 1.382-.93 2.197-1.258-.36.675-1.115 1.126-2.197 1.258zm-11.441 3.883c-3.641.994-1.487-.075-4.48-1.186 1.302-.567 4.353-.197 4.48 1.186zm44.36-49.423c3.61-1.981 6.664-5.45 10.958-4.082-3.696 5.84-4.795 7.977-10.958 4.082zm19.812-29.096c.54-3.74-8.95-5.355-11.15-4.588-4.07 1.42-3.488 3.705-4.278 8.034 4.288-.257 10.849-4.761 15.428-3.446zm-.25-3.865c3.978.057 5.044-12.981 1.248-15.584-4.228-2.9-14.736.662-17.602 4.399-3.563 4.644.442 4.59 5.376 4.473 7.62-.18 8.597-1.406 10.978 6.712zm-2.357 42.399c6.67 5.874 12.421 11.845 20.894 14.966 7.413 2.73 14.812 4.39 21.752 8.4 3.208 1.853 5.519 3.53 9.136 5.908 1.352.889 9.521 4.758 5.9 5.25.226.537 2.954 5.082 2.85 5.475-.304 1.15-4.084-.235-4.74-.137 3.136 4.826 4.172 2.024-1.086 3.081-2.296.462-4.226.374-6.775.84a7.522 7.522 0 0 0 1.845 1.527c-3.6 2.424-12.163-1.892-17.017-3.055-11.358-2.722-19.87-6.178-27.097-15.863-4.605-6.171-10.319-16.397-18.54-11.643-2.746 1.588-18.053 15.045-17.913 16.336a3.085 3.085 0 0 0 1.641.015 23.621 23.621 0 0 0-4.62 3.011 4.84 4.84 0 0 1 1.253-1.527c-5.9.712-12.934 7.387-18.935 9.375-4.353 1.442-8.963 2.295-13.673.902 1.387-2.585-3.77-2.822-5.54-4.482.354-1.094 4.457.374 5.398-1.5-2.061-.134-8.726 1.194-8.176-2.947-.776.03 4.134.482 3.276.043.744 1.519.764 2.258 3.615 1.017-2.378-2.968 3.521-.875 4.556-1.272 2.015-.772 5.213-3.793 7.902-2.717-.6-1.6 17.692-12.728 19.84-14.507 3.544-2.936 7.419-5.719 10.468-9.205 5.225-5.973 2.917-4.484.32-10.964-2.104.492-2.212 4.18-4.592 5.218-1.093.477-2.928-.088-4.013-.01-2.199.157-5.99-1.007-7.658.073-1.002-1.788 12.955-14.536 14.581-16.5 2.114-2.551 7.364-7.131 6.974-10.789-.293-2.738-2.62-.883-3.629-1.442-1.104-.612.739-3.688.264-4.302-1.837-2.377-3.997-2.712-5.24-5.862-1.558-3.95-2.007-15.707-.449-19.4 3.026-7.17 3.454-.981 9.634-1.04 4.158-.04 8.669-3.695 12.969-4.51 7.13-1.352 22.08-5.95 25.372 2.606 1.662 4.321-.55 12.066-1.468 16.374-.347 1.627-2.86 13.542-5.45 9.29-4.831 6.403-20.659-.937-19.904 9.374.639 8.722 6.916.68 13.035 3.608 12.756 6.105-2.543 15.753-6.96 20.985zM136.41 105.969c-.131-.776-.213-1.557.433-2.394.127.963-.127 1.677-.433 2.394zm-19.125 11.446c-.615-.661-1.234-1.024-1.326-1.848.841.275 1.22.76 1.326 1.848zm24.944 3.296c-.223-.798.503-2.277.686-3.104.398 1.118.17 2.153-.686 3.104zm-6.52 14.045a24.04 24.04 0 0 0 .524-3.613c-.007-.033.52 3.916-.524 3.613zm3.14-10.861l-1.118 3.931c-.246-.066-.225-4.339 1.119-3.931zm-66.789 20.13c.651-.288.829-.783.533-1.487-.526-.636-1.841.344-2.166.642.706-.023 1.25.259 1.633.845zm66.337-9.92c-1.316-.783-.8-3.737.922-3.905.075.928.305 3.314-.922 3.904zm3.393-11.946c.348 1.871-1.123 4.488-1.67 6.237-.054-.01-.67-6.47 1.67-6.237zm-7.46-6.943c.806 1.754-.407 5.784-2.176 6.588-.287-.123 2.069-6.296 2.177-6.588zm-58.339 22.81c2.638-4.246 4.928-10.308 8.55-13.821-.959 4.107-5.39 11.055-8.55 13.822zm55.126-16.54c2.025 2.249.398 7.79-1.406 10.132-.224-1.095.946-9.66 1.406-10.132zm-46.52 7.971c-1.012 1.686-8.943 16.304-10.352 15.224 1.293-2.708 10.775-14.856 10.352-15.224zm55.099 7.748c3.707 2.025-1.873 14.335-4.977 15.538-4.487 1.74-9.278-2.716-12.225-5.554-6.133-5.908-10.283-16.083-11.021-24.428a7.883 7.883 0 0 1 2.26 2.77 2.34 2.34 0 0 1 .565-.792c-.947-.114 5.607 7.083 5.9 7.285 1.096-.415-6.103-16.514-5.386-17.468 2.414-3.214 5.961 6.972 7.756 8.817 5.1 5.244 4.444 4.233 7.375-2.126 2.283-4.95 2.36-12.899 3.959-20.771 1.554-7.656 5.135-17.939 3.793-26.091-6.969 4.282-15.166 3.55-18.98 11.684-4.9 10.455-9.872 20.215-17.804 29.211-.874-2.93-3.792 6.253-3.792 2.548a25.245 25.245 0 0 0-2.441 4.572c.805.459.888-2.255 1.911-2.019 1.443.332-3.121 7.83-4.412 8.122-.313-.99 1.984-4.468 2.138-5.394-4.951 5.19-7.928 12.682-12.619 18.18-1.819-.986 5.631-10.657 6.166-12.34-1.841-1.398-6.805 8.176-7.03 9.245.489.053.944-.046 1.366-.298-.37 1.118-4.896 5.07-4.01 6.96a6.051 6.051 0 0 0 2.129-2.765c2.136 1.746-7.228 12.119-9.379 11.11-.561-1.789 3.839-3.837 4.758-5.103 1.108-1.528 1.106-2.263 1.645-3.877-2 .362-5.142 5.426-6.801 4.624a16.047 16.047 0 0 1 3.185-3.617c-2.27 1.055-6.05 5.985-8.444 6.15 1.32-3.69 3.983-7.357 5.618-9.569 3.478-4.707 6.864-8.806 9.96-13.9 4.034-6.64 7.535-13.367 11.197-20.21 2.599-4.854 7.894-11.53 8.305-16.946.483-6.36.058-3.013-5.31-6.013-2.153-1.202-8.766-4.488-10.004-6.839-5.68-10.786 20.229-14.946 27.933-16.984 10.56-2.793 43.976-17.876 48.86-2.018 3.122 10.136-4.86 22.91-7.17 32.685-1.55 6.559-2.442 18.086-7.03 20.704.71-4.055 1.654-8.087 2.05-12.193-2.312 4.772-3.084 11.374-4.55 16.34-2.017 6.832-5.444 13.546-5.444 20.77zm40.108-17.806c.008.527-.2.666-.641.622-.056-.459.172-.589.641-.622zm33.112-14.31c-.17-.732-.458-1.32.084-1.887.49.697.489.899-.084 1.886zm.007-7.021a9.028 9.028 0 0 1 .112 4.603 41.335 41.335 0 0 1-.112-4.603zm.163-10.908c.265 1.638.207 5.155-.065 6.273-.253-1.022-.252-5.108.065-6.273zm-.657 24.852c-.064-1.972.26-3.914.486-5.864.498 2.005.12 3.943-.486 5.864zm-24.372-32.024c-.31-1.22-.221-4.213.578-5.374.509 1.875.316 3.667-.578 5.374zm9.072 6.88c2.539-.272 8.307.757 10.71 1.245.017-4.185.055-8.378-.143-12.56-2.429 1.166-2.27 3.518-5.303 4.363-2.863.798-6.458-2.467-8.59-1.663-4.721 1.779-5.015 9.197-4.286 13.949.124.02 7.802-3.744 7.612-5.333zm10.555-13.463c.528-5.333 1.377-20.018-1.004-24.772-1.633-3.262.7-3.02-1.907-3.189-.412-.027-8.356 5.062-8.668 5.466-1.93 2.498-4.68 12.731-2.885 14.691 1.538 1.679 7.638.86 9.66 2.165 2.154 1.39 2.89 4.551 4.804 5.639zm7.174 9.192c-.31 8.729-2.352 19.451-.37 27.667.035-.673-.08-5.213 1.157-4.972-1.101-.215 1.498 10.54 1.593 10.892 1.857 6.907 7.975 15.89-2.75 17.967-5.798 1.123-10.425-2.617-13.166-6.536-.886-1.266-1.579-2.899-2.403-4.243.62 1.01-3.912-4.537-3.835-4.32.685.028 4.112 2.737 4.886 2.285 1.17-.683-6.577-5.939.258-1.831.402-1.449-3.712-2.891-4.114-4.358 2.763 1.445 4.758 1.366 6.975 2.178-1.141-4.027-7.766-5.57-9.136-9.061.256-.644 12.87 5.238 12.978 5.285 1.005-5.433 1.01-10.974.926-16.477-3.304 1.052-6.815 1.207-10.148 2.05-1.51.381-9.038 1.414-9.963 2.223.068-.06-5.822 23.355-9.51 20.821 2.518-4.485-4.282 3.158-4.59 3.69-1.22-2.268-3.545 3.006-3.903 3.903-6.75.74-6.268-9.862-4.331-14.273 4.107-9.353 8.227-16.429 9.984-26.95 1.464-8.766 2.068-17.749 2.203-26.585.034-2.229-3.236-23.555-2.72-24.02 2.052-1.848 12.504 2.703 14.47 3.728 4.726 2.463 2.89 3.93 8.808 1.856 4.365-1.53 5.606-3.84 10.5-4.111 14.969-.83 10.287 15.607 8.97 25.942.524 0 15.002-30.217 15.292-32.562.862-6.967-9.092-14.059 2.838-14.757 8.092-.474 20.752 5.064 18.141 15.17-1.987 7.69-9.983 8.918-14.425 9.89a3.796 3.796 0 0 1 .503-1.678c-2.313-.316-3.782.932-4.407 3.745a20.95 20.95 0 0 1 1.31-3.187c-.224-.234-11.968 17.82-12.92 18.906-1.378-1.53 2.49-5.714 3.135-6.628-.114-.157-1.243.333-.98-.132.4-.708 2.45-4.24.442-1.713-2.96 3.724-5.012 9.375-7.309 14.123a19.358 19.358 0 0 0 4.155-3.307c1.001 3.902.513 12.108-4.862 12.108.452 1.235.285 2.377-.504 3.426.274.008-1.608-2.413-1.934-2.686 2.236 3.878 1.295 23.395-.622 25.991-.458-2.174-.113-24.33-.483-24.31a10.224 10.224 0 0 0-.14 4.85z" fill-opacity=".08" fill="#000"/><g transform="rotate(14 -255.835 373.954)"><path d="M173.323 125.172c7.823 2.592 16.18 4.08 24.467 6.559-1.603 1.603-3.327 5.84-4.129 8.244-8.552-2.36-14.819-3.854-18.854-5.352l-1.484-9.45z" fill="#000" fill-rule="nonzero"/><path d="M55.426 81.08C37.78 69.707 22.226 57.29 8.763 43.827 5.743 38.677 4.54 33.068 5.157 27 24.805 47.244 41.56 61.936 55.424 71.076l.002 10.003z" fill="#EE6344" fill-rule="nonzero"/><g transform="rotate(-11 167.74 12.852)" fill-rule="nonzero"><path d="M39.948 73.357C33.76 75.78 31.56 80.861 33.346 88.6l-9.5 1.5c-2.244-14.423 3.372-22.22 16.846-23.391.279-2.145.6-4.318.964-6.501C32.598 55.64 27.589 76.1 17.346 76.1c-7 0-12.5-3.5-16.5-10.5l8.5-11.5c1.667 7.667 5.667 11.5 12 11.5 9.355 0 6.734-19.385 21.932-13.769 2.75-12.405 7.07-24.427 13.521-32.888C70.18 1.4 95.015.29 110.78.29c29.932 0 54.5 10.495 54.5 25-.625 4.272-1.973 8.244-4.046 11.916-6.736 11.938-9.44 19.865-9.696 46.155-.276 28.363.378 49.577 1.963 63.639 0 14.505-24.568 25-54.5 25s-54.5-10.495-54.5-25c-4.68-14.75-6.414-36.158-5.202-64.223a185.6 185.6 0 0 1 .65-9.42z" fill="#000"/><path d="M113.485 86.715c16.939-.887 35.691 14.06 43.403-13.894 9.243-33.508-29.039-8.917-44.317-8.089-15.659.849-56.658-20.54-43.704 12.702 10.582 27.152 27.498 10.179 44.618 9.281zm-2.824-44.389c26.954 0 48.5-9.204 48.5-19 0-9.795-21.546-19-48.5-19-26.953 0-48.5 9.205-48.5 19 0 9.796 21.547 19 48.5 19z" fill="#FFF"/><ellipse fill="#EE6344" cx="116" cy="123" rx="6" ry="25"/></g><path d="M85.36 136.554C129.016 156.667 149 148 164 122" stroke="#FFF" stroke-width="6" stroke-linecap="round" stroke-linejoin="round" fill-rule="nonzero"/><path d="M133.774 110.59c12.19 4.854 23.634 8.897 37.226 13.41.181.06-2.854 7.045-3 7-20.578-6.308-25.3-8.266-31.807-10.707-.242-.97-1.935-7.763-2.42-9.703z" fill="#FFF" fill-rule="nonzero"/><path d="M163.792 133.408a8.858 8.858 0 1 0-11.615-4.693" stroke="#000" stroke-width="6" fill="#FFF" fill-rule="nonzero" stroke-linecap="round"/><path d="M200.7 131.005c19.43 2.602 30.748 3.902 33.953 3.902 2.772 0 2.117 4.11-1.966 12.332a6 6 0 0 1-6.652 3.193c-16.127-3.515-26.03-6.192-29.707-8.03-4.007-2.004-2.55-5.803 4.373-11.397z" fill="#000" fill-rule="nonzero"/><path d="M191.321 144.798c5.61-6.41 8.815-12.822 9.617-19.232" stroke="#000" stroke-width="4.8" stroke-linecap="round" stroke-linejoin="round" fill-rule="nonzero"/><g fill="#000"><path d="M94.073 84.542c-3.636-.341-6.46.77-7.615 4.686 2.004-28.588 36.45 12.235 39.459-1.879.198 5.667-2.662 6.765-6.934 5.893-7.887-1.39-8.135-5.742-24.91-8.7z" fill-rule="nonzero"/><path d="M130 89.079c13 .921 18.085-42.736 33.505-19.168-3.414-2.195-6.384-2.061-9.073-.613C146 75 146 87 136 90c-2 .367-3.648.367-6-.921z"/></g><ellipse fill="#EE6344" transform="rotate(-11 113.709 34.025)" cx="113.709" cy="34.025" rx="23.5" ry="10"/><g transform="rotate(-144 109.076 35.293)" fill-rule="nonzero" stroke="#000" stroke-width="6"><path d="M24.77 17.8C9.473 23.97 1.975 21.588 2.274 10.658" stroke-linecap="round" stroke-linejoin="round"/><circle fill="#000" cx="5.5" cy="5.5" r="5.5"/></g></g><g fill-rule="nonzero"><path d="M140 254c16.667 47.333 5.333 61.667-34 43" stroke="#000" stroke-width="6" stroke-linecap="round" stroke-linejoin="round"/><path d="M103.154 297c-.667 8.121.833 12.182 4.5 12.182h9.5c0-2.182-2.612-2.086-3-2.182-6.59-1.622-3-8.111-3-10 0-1.333-2.667-1.333-8 0z" fill="#000"/></g><g fill-rule="nonzero"><path d="M203 254c16.667 47.333 5.333 61.667-34 43" stroke="#000" stroke-width="6" stroke-linecap="round" stroke-linejoin="round"/><path d="M166.154 297c-.667 8.121.833 12.182 4.5 12.182h9.5c0-2.182-2.612-2.086-3-2.182-6.59-1.622-3-8.111-3-10 0-1.333-2.667-1.333-8 0z" fill="#000"/></g></g></svg>