<svg width="340" height="339" xmlns="http://www.w3.org/2000/svg"><defs><linearGradient x1="50%" y1="0%" x2="50%" y2="100%" id="a"><stop stop-opacity=".12" offset="0%"/><stop stop-opacity="0" offset="100%"/></linearGradient></defs><g fill="none" fill-rule="evenodd"><path d="M249.482 25.743c.003 2.478.004 4.958.006 7.435 0 1.067.6 4.365-.15 5.2-.418.464-.989.417-1.55.369-.5-.043-.996-.087-1.371.233-1.306 1.11-.107 1.941.56 2.995-.711 2.107-.08 6.185.568 8.28.682 2.208 1.89 3.811 2.838 5.867.967 2.097.99 4.444 2.05 6.522 1.905 3.733 4.026 7.363 5.879 11.107 1.439 2.908-.405 7.497-.599 10.897-.27 4.686-1 9.375-.544 14.101.193 2.01.753 2.15 1.89 3.587 1.142 1.445 1.257 2.105 1.32 4.149.156 5.001.333 10 .414 15.005.03 1.942-.625 5.718.146 7.47.712 1.62 2.6 2.063 4.12 2.783.107 7.104.208 14.207.326 21.311.097 5.853 1.407 13.228.006 18.863-.208.833-.604 1.438-.721 2.393-.117.956.403 2.595-.175 3.445-.656.962-1.948.801-3.262.64-1.103-.136-2.22-.27-2.988.257-1.888 1.296-1.144 5.245-2.352 6.97-1.09 1.553-2.126 1.524-4.197 1.517-1.324-1.602-1.732-1.615-4.5.415-.738-3.338-.961-7.577-1.126-10.983-.24-4.97.028-10.02.028-14.998-1.809-1.627-1.785-2.003-1.877-4.454-.083-2.226-.251-4.293 1.396-6.062.513-1.103.187-1.684-3.31-1.862.284-2.063.972-4.132-1.892-4.507.432-2.285.157-3.146-2.448-3.258-2.695.158-2.476-3.014-3.657-4.873-1.449-2.277-2.532-2.078-3.103.653-2.102-2.321-3.786-6.267-4.64-9.284-.847-2.998-.052-6.041-.883-9.045-1.996 1.884-.871 5.044-1.284 7.63-.53 3.32-2.339 5.841-3.69 8.834-1.09 2.42-1.365 5.556-4.322 6.33-2.594.68-4.75-.399-6.995 1.734-3.305 1.417-.411 1.953-.782 4.306-.269 1.7-2.207 1.648-3.876 1.595-.413-.012-.81-.026-1.161-.012-.248 2.018 1.412 2.353 1.975 3.005-.405 7.753-1.327 15.035-1.325 22.804.002 8.995.745 17.998-1.716 26.64-1.318.147-2.54.387-3.785-.829.025-10.449.058-20.9.073-31.35.007-4.039-1.234-7.492-1.107-11.487.115-3.654 2.318-6.173-2.544-6.934-.62-.109-1.142-.384-.864-1.278.676-.257 1.4-.534 2.38-.91-3.158-5.365-10.051-2.287-12.932-8.17-1.385-2.828-3.047-6.689-3.559-9.8-.236-1.43.648-7.957-1.13-7.981-1.375 1.076-.424 3.995-.507 5.493a16.166 16.166 0 0 1-2.108 7.113c-1.512 3.432-2.366 7.567-6.14 8.711-2.016.61-3.702.255-5.298 1.379-1.35.949-2.059 1.904-3.801 2.606l2.07 2.523c-.692.255-1.075.498-3.663.487-2.835.493.839 3.168 1.322 3.872-.61.298-1.179.576-1.69.824 0 8.915-.605 17.807-.605 26.743 0 4.854.008 9.709.01 14.563.003 3.54 1.33 7.23-2.567 8.586-1.804.44-3.408 2.285-4.534-.07-.65-1.36-.01-4.548-.004-5.98.01-2.912-.188-5.917.055-8.816.174-2.082 1.968-4.124.212-5.842 1.82-2.023-.96-3.03-.26-5.056.641-1.86 3.732-2.314 4.275-4.165.583-1.987-1.285-3.249-2.476-4.487-1.781-1.85-1.31-2.704-1.558-5.262-.534-5.49-1.914-10.804-1.969-16.33-.027-2.776-.452-6.054-.009-8.779.324-1.985.896-3.298.744-5.442-.07-1-.253-2.118.095-3.098.209-.584 1.676-1.84 1.564-2.514-.251-1.496-2.648-1.87-3.56-3.064-.806-1.051-2.13-4.28-2.39-5.638-.505-2.632 1.726-2.97 2.263-5.226.615-2.58-1.573-4.6-2.797-6.542-1.35-2.141-2.002-4.26-2.144-6.786-.25-4.453 1.977-10.091-1.623-13.19v-5.164l3.21-.95c-.801-1.62-2.492-.853-3.437-1.854.065-.525.139-1.12-1.078-1.793l-.136 1.84c-.881 1.124-2.638.097-1.735 2.24 2.83.461 1.926 4.582 1.11 6.488-.85 1.988-1.121 2.063-.989 4.514.084 1.573.078 3.15.156 4.722.207 4.144-.2 7.11-2.51 10.63-2.747 4.187-2.586 5.866.396 9.764-1.053 2.701-1.98 8.603-5.713 8.42-.639-3.882-.447-7.81-1.036-11.715 2.118-3.395 2.122-3.613-.187-6.427h-5.253c-1.434-5.474-3.882-10.082-8.496-13.542-1.87-1.401-14.463-6.619-7.943-9.015 6.168-2.842 3.152-10.072-.158-13.786-4.057-4.555-5.702-9.479-5.53-15.598.073-2.552-.976-5.351-.482-7.768.433-2.112 1.068-1.88-.046-3.82-.54-.938-1.15-1.192-1.445-2.418-.244-1.011-.291-3.863.104-4.782.602-1.396.53-.595 1.799-1.203.717-.345 1.997.133 2-1.17.001-1.113-1.582-1.063-2.298-.998-2.134.151-1.65-2.252-1.811-3.83-1.918.884-.724 2.433-1.355 3.54-.336.071-.75.21-2.492.162-.906.075-1.96.766-1.285 1.8.37.568 1.105.48 1.843.394.65-.076 1.302-.153 1.713.217 1.456 1.316.12 6.412-.443 7.703-.685 1.568-1.468 1.209-1.204 3.225.171 1.313.637 1.633.558 3.046-.177 3.123-.313 6.517-.666 9.666-.341 3.05-1.218 6.007-2.824 8.642-1.593 2.613-4.146 4.468-5.428 7.276-1.162 2.544-1.448 6.092.582 8.332 1.753 1.935 6.373 2.29 2.595 5.438-4.633 2.536-9.373 4.674-12.658 8.971-1.364 1.787-2.375 3.756-3.235 5.821-.483 1.162-.794 2.983-1.982 3.675-.676.392-1.523.282-2.36.173-.847-.111-1.681-.222-2.313.188-1.81 1.178-1.145 3.29-.7 4.674 1.187 3.698.523 9.197-.14 13.21-1.762-.423-2.473-.63-3.353-2.123-.769-1.3-2.22-4.567-2.182-6.066.042-1.7 1.874-2.31 2.383-3.944.66-2.121-.72-3.952-1.825-5.624-2.927-4.434-3.117-8.03-2.937-13.276.06-1.779.801-4.17.206-5.874-.372-1.07-1.215-1.58-1.51-2.74-.324-1.277-.042-3.147-.042-4.449.56-.239 1.014-.462 2.811-.968-.618-.979-1.782-1.207-2.794-1.573-.035-.78-.063-1.41-1.966-1.901l.16 1.66c-.905 1.1-2.763.14-3.076 1.886l2.963.874c0 1.313.387 3.34.117 4.592-.34 1.57-1.79 2.154-2.003 3.75-.166 1.226.527 3.046.555 4.358.039 1.79.204 3.627.171 5.413-.07 3.733-1.903 6.101-3.718 9.162-2.07 3.493-1.056 5.44 1.393 8.34-.836 2.133-1.513 5.644-3.142 7.372-1.265 1.344-3.524 1.03-3.064 3.112.21.948 1.562 1.485 1.766 2.468.214 1.022-.28 1.344-.365 2.28-.163 1.81-.356 4.247.737 5.81-.021 3.36.125 6.724.11 10.076-.014 3.122-.907 6.117-1.133 9.232-.197 2.726-.272 6.607-1.155 9.195-.364 1.07-4.003 5.565-4.752 5.297 1.383 1.503 4.115 2.874 4.91 4.72.887 2.057-1.167 3.48.13 5.486-1.602 2.412-.129 2.698.308 5.326.433 2.602.048 5.542.049 8.173.002 6.402.496 13.022.01 19.404-.19 2.481-.633 1.638-2.176 3.098-1.838 1.737-.137 2.935.29 5.281.467 2.569-.105 4.85-.81 7.185-.494 1.638-.87 63.86.245 65.374 40.19.124 80.38 0 120.57-.001 29.038-.001 58.078-.003 87.117-.01l30.406-.002 10.143-.001c.654 0 1.313.01 1.973.02 1.296.023 2.596.044 3.883-.022 3.968-.203 2.585-63.793 2.598-67.145.02-4.947.802-11.501-.852-16.229-.632-1.802-1.497-2.263-1.722-4.212-.239-2.054-.066-4.219-.074-6.278-.024-5.944.024-11.889.005-17.833-.006-2.083.063-3.518-1.309-5.176-1.22-1.475-2.378-1.769-3.116-3.892v-6.283c-1.672-.1-3.093-.187-4.9-.296 2.89-3.87 1.966-10.231 2.173-14.8.239-5.331.532-10.668.612-16.005.082-5.406.005-10.814.047-16.22.021-2.64.04-5.28.035-7.919-.003-1.672-.567-4.542.384-6.074.886-1.427 2.542-1.226 3.137-2.93.626-1.789-.327-5.272-.451-7.161-.146-2.204-.779-5.011-.404-7.19.276-1.591.948-3.06 1.2-4.714.367-2.404 1.207-4.343 1.207-6.866 0-2.101-.349-4.086.447-6.08 1.358-3.409 1.925-6.21 5.301-8.214 3.286-2.869 3.636-5.35 3.89-9.578.27-4.521.598-9.059.726-13.585.064-2.254.072-2.846-2.059-3.793-1.653-.736-3.64-1.107-5.441-1.181-2.261-.093-8.322.388-9.834 2.314-.924 1.176-.408 3.9-.459 5.295-.073 1.988-.202 3.974-.216 5.963-.031 4.126.63 6.179 2.607 9.61 3.753 6.506-4.844 11.237-9.813 13.543-.355-2.09.925-3.603 1.286-5.607.4-2.226.902-5.143.703-7.403-.376-4.255-6.326-5.924-9.63-3.781-4.213 2.732-3.904 5.317-1.643 9.353.929 1.657 2.758 8.49-1.326 7.117-1.441-.484-3.303-3.668-4.564-4.765-1.785-1.555-3.74-2.82-5.396-4.52-1.545-1.587-2.004-2.62-2.63-4.595-.749-2.359-2.115-4.057-3.561-6.103-1.118-1.58-3.653-4.058-3.935-6.032-.174-1.214.665-3.265 1.024-4.54.822-2.918 4.968-5.146-.162-6.184 0-6.657.002-13.315.006-19.972.003-4.893 2.22-14.938-2.708-17.968-2.688 3.15-1.794 7.708-1.778 11.525.018 4.406.025 8.812.03 13.218zM131.146 147.408c.009-2.091-.52-4.77.047-6.82.307-1.112 1.083-1.522 1.077-2.924-.006-1.014-.436-2.026-.551-3.03-.151-1.319-.382-1.293.884-2.767l1.108 1.483c-.642 5.661.309 10.928.282 16.705-.014 2.7-.203 4.622-.82 7.125-.653 2.64.43 5.454-1.052 7.996-1.437-2.53-.116-5.94-.445-8.687a72.038 72.038 0 0 1-.53-9.081zM68.46 134.787c-.215-1.115.161-1.802 1.163-2.92 1.008 2.311.14 4.318.399 6.758.226 2.116.762 3.983.726 6.214-.059 3.659 1.228 10.04-1.033 13.177.333.535.695.91.668 1.256-.144 1.842.55 3.75-.46 5.547-.399-2.105-1.503-4.148-.476-6.618-2.35-3.458-1.372-8.574-1.385-12.536-.012-3.84 1.125-7.12.398-10.878zm1.046 23.499c.073-.087.143-.177.21-.27a4.751 4.751 0 0 1-.105-.175c-.06.121-.114.241-.164.36l.06.085z" fill="url(#a)"/><ellipse fill-opacity=".12" fill="#000" cx="168" cy="322" rx="82" ry="11"/><g transform="rotate(-4 1581.63 -993.632)"><path d="M41.5 149c0 14.505 24.568 25 54.5 25s54.5-10.495 54.5-25V25c0-14.505-24.568-25-54.5-25S41.5 10.495 41.5 25v28c-16-6.5-11.5 14-21 14-6.333 0-10.333-3.833-12-11.5L0 67c4 7 9.5 10.5 16.5 10.5C27 77.5 32 56 41.5 62v6c-14.667.667-20.833 8.5-18.5 23.5l9.5-1.5c-2-8.667 1-14 9-16v75z" fill="#000" fill-rule="nonzero"/><path d="M95.5 44c26.954 0 48.5-9.204 48.5-19S122.454 6 95.5 6 47 15.204 47 25s21.546 19 48.5 19zm15.223 49.069c16.94-.888 38.65 14.046 43.404-13.895 2.687-15.795-18.324-26.286-44.47-25.107-26.146 1.179-49.648 7.555-43.551 29.72 7.556 27.47 27.498 10.179 44.617 9.282z" fill="#FFF" fill-rule="nonzero"/><ellipse fill="#EE6344" cx="95.5" cy="25" rx="23.5" ry="10"/><g transform="translate(20 107)" fill-rule="nonzero" stroke-width="6"><path d="M23.087.05C-9.338 8.704-7.54 18.3 28.48 28.839" stroke="#000" stroke-linecap="round" stroke-linejoin="round"/><circle stroke="#FFF" fill="#FFF" cx="29.5" cy="25.5" r="5.5"/></g><g transform="rotate(-133 104.63 37.108)" fill-rule="nonzero" stroke="#000" stroke-width="6"><path d="M35.101 16.613C23.623-5.432 14.184-5.29 6.785 17.039" stroke-linecap="round" stroke-linejoin="round"/><circle fill="#000" cx="5.645" cy="24.462" r="5.5"/></g></g><g transform="translate(155 166)" fill-rule="nonzero" stroke="#000"><circle stroke-width="5" cx="10" cy="15" r="10"/><circle stroke-width="5" cx="57" cy="10" r="10"/><circle fill="#000" cx="14" cy="19" r="4"/><circle fill="#000" cx="58" cy="16" r="4"/></g><g fill-rule="nonzero"><path d="M225 258c33.333-17.333 44.667-12.667 34 14" stroke="#000" stroke-width="6" stroke-linecap="round" stroke-linejoin="round"/><path d="M255.045 277.59c-.023-.01-.045-.023-.067-.034a2 2 0 0 1-.832-2.703c2.234-4.221 3.402-5.746 3.504-4.574C257.815 272.16 276 280 268 288c-5 0 2-5-12.955-10.41z" fill="#000"/></g><g fill-rule="nonzero"><path d="M161 267c22.613 41.294 19.28 56.96-10 47" stroke="#000" stroke-width="6" stroke-linecap="round" stroke-linejoin="round"/><path d="M148.154 314c-.667 8.121.833 12.182 4.5 12.182h9.5c0-2.182-2.612-2.086-3-2.182-6.59-1.622-3-8.111-3-10 0-1.333-2.667-1.333-8 0z" fill="#000"/></g></g></svg>