<svg width="24" height="24" viewBox="0 0 24 24" fill="none" xmlns="http://www.w3.org/2000/svg">
<path d="M6.41406 13.0301V20.2489C6.41406 21.2614 7.23491 22.0822 8.2474 22.0822H15.5807C16.5932 22.0822 17.4141 21.2614 17.4141 20.2489V8.97656L7.43009 8.97656C6.76618 10.2177 6.41406 11.6092 6.41406 13.0301Z" fill="#FFF6DE"/>
<path fill-rule="evenodd" clip-rule="evenodd" d="M1.89987 5.05191C2.19057 4.58232 2.8069 4.4373 3.27649 4.728L22.5265 16.6447C22.9961 16.9354 23.1411 17.5517 22.8504 18.0213C22.5597 18.4909 21.9434 18.6359 21.4738 18.3452L2.22378 6.42853C1.75419 6.13783 1.60918 5.5215 1.89987 5.05191Z" fill="#FF6633"/>
<path fill-rule="evenodd" clip-rule="evenodd" d="M7.25 1.91406C7.25 1.36178 7.69772 0.914062 8.25 0.914062H15.8359C16.3882 0.914062 16.8359 1.36178 16.8359 1.91406C16.8359 2.43385 16.4394 2.86101 15.9323 2.90948L15.9654 5.46621C15.9654 5.76492 16.1183 6.23615 16.4392 6.82926C16.7437 7.39224 17.1326 7.94548 17.4559 8.3766C17.4863 8.41722 17.5137 8.46011 17.5376 8.50489C18.2788 9.89046 18.6719 11.4439 18.6719 13.0301V20.2489C18.6719 21.8136 17.4033 23.0822 15.8385 23.0822H8.2474C6.68262 23.0822 5.41406 21.8136 5.41406 20.2489V13.0301C5.41406 11.4439 5.80717 9.89046 6.54832 8.50489C6.57227 8.46011 6.5996 8.41722 6.63007 8.3766C6.95338 7.94548 7.34222 7.39224 7.64678 6.82926C7.96764 6.23615 8.12059 5.76492 8.12059 5.46621V5.45323L8.15367 2.90948C7.64658 2.86102 7.25 2.43385 7.25 1.91406ZM10.1538 2.91406L10.1206 5.4734C10.1185 6.28805 9.76189 7.12279 9.40587 7.78089C9.04938 8.43986 8.6172 9.05684 8.27771 9.51284C7.71313 10.5932 7.41406 11.7992 7.41406 13.0301V20.2489C7.41406 20.7091 7.78719 21.0822 8.2474 21.0822H15.8385C16.2987 21.0822 16.6719 20.7091 16.6719 20.2489V13.0301C16.6719 11.7992 16.3728 10.5932 15.8082 9.51284C15.4687 9.05684 15.0366 8.43986 14.6801 7.78089C14.3241 7.1228 13.9675 6.28807 13.9654 5.47342L13.9322 2.91406H10.1538Z" fill="#1D1D1F"/>
</svg>
